<?xml version="1.0" encoding="iso-8859-1"?>
<!-- Generator: Adobe Illustrator 19.0.0, SVG Export Plug-In . SVG Version: 6.00 Build 0)  -->
<svg version="1.1" id="Capa_1" xmlns="http://www.w3.org/2000/svg" xmlns:xlink="http://www.w3.org/1999/xlink" x="0px" y="0px"
	 viewBox="0 0 480 480" style="enable-background:new 0 0 480 480;" xml:space="preserve">
<g>
	<g>
		<g>
			<path d="M472,52H8c-4.418,0-8,3.582-8,8v256c0,4.418,3.582,8,8,8h272v-16H16V68h448v240h-40v16h48c4.418,0,8-3.582,8-8V60
				C480,55.582,476.418,52,472,52z"/>
			<path d="M384,204h-16v-24c0-17.673-14.327-32-32-32c-17.673,0-32,14.327-32,32v24h-16c-13.255,0-24,10.745-24,24v16h-16
				c-5.541,0.023-10.901,1.981-15.152,5.536l-67.2-67.2l-11.312,11.312l70.088,70.088c-2.497,12.873,5.915,25.334,18.788,27.831
				c1.577,0.306,3.181,0.451,4.788,0.433h48v128c0,4.418,3.582,8,8,8h64c4.418,0,8-3.582,8-8v-88h8c13.255,0,24-10.745,24-24v-80
				C408,214.745,397.255,204,384,204z M320,180c0-8.837,7.163-16,16-16s16,7.163,16,16v24h-32V180z M360,412h-16v-96h-16v96h-16V300
				h48V412z M392,308c0,4.418-3.582,8-8,8h-8v-80h-16v48h-48v-48h-16v40h-48c-4.418,0-8-3.582-8-8s3.582-8,8-8h24
				c4.418,0,8-3.582,8-8v-24c0-4.418,3.582-8,8-8h40v48h16v-48h40c4.418,0,8,3.582,8,8V308z"/>
			<path d="M424,276v16h16c4.418,0,8-3.582,8-8V92c0-4.418-3.582-8-8-8H40c-4.418,0-8,3.582-8,8v192c0,4.418,3.582,8,8,8h168v-16H48
				V100h384v176H424z"/>
		</g>
	</g>
</g>
<g>
</g>
<g>
</g>
<g>
</g>
<g>
</g>
<g>
</g>
<g>
</g>
<g>
</g>
<g>
</g>
<g>
</g>
<g>
</g>
<g>
</g>
<g>
</g>
<g>
</g>
<g>
</g>
<g>
</g>
</svg>
