<?xml version="1.0" encoding="iso-8859-1"?>
<!-- Generator: Adobe Illustrator 19.0.0, SVG Export Plug-In . SVG Version: 6.00 Build 0)  -->
<svg version="1.1" id="Layer_1" xmlns="http://www.w3.org/2000/svg" xmlns:xlink="http://www.w3.org/1999/xlink" x="0px" y="0px"
	 viewBox="0 0 512 512" style="enable-background:new 0 0 512 512;" xml:space="preserve">
<g>
	<g>
		<g>
			<path d="M155.362,334.191c9.122,0,17.698-3.55,24.141-10.001c4.42-4.412,7.228-9.779,8.713-15.42l17.929,17.92
				c6.443,6.451,15.019,10.001,24.132,10.001c9.122,0,17.69-3.55,24.132-10.001c6.451-6.443,10.001-15.019,10.001-24.132
				c0-9.122-3.55-17.69-10.001-24.141l-15.403-15.403c5.751-1.519,11.076-4.403,15.403-8.73
				c6.451-6.451,10.001-15.019,10.001-24.141c0-9.114-3.55-17.69-10.001-24.132l-21.444-21.444c5.76-1.519,11.085-4.403,15.411-8.73
				c6.451-6.443,10.001-15.01,10.001-24.132s-3.55-17.69-10.001-24.132l-60.518-60.527V8.533c0-4.71-3.823-8.533-8.533-8.533
				c-4.71,0-8.533,3.823-8.533,8.533v45.397c-12.365-4.813-27.401-2.389-37.06,7.262c-10.59,10.607-12.604,26.436-6.323,39.185
				c-6.622,1.169-12.919,4.19-17.818,9.096c-10.513,10.522-12.578,26.197-6.468,38.904c-6.647,1.271-12.774,4.471-17.664,9.361
				c-10.513,10.522-12.587,26.206-6.468,38.912c-6.656,1.271-12.774,4.471-17.664,9.361c-6.451,6.443-10.001,15.019-10.001,24.132
				c0,9.122,3.55,17.69,10.001,24.141l69.905,69.905C137.673,330.641,146.249,334.191,155.362,334.191z M145.796,73.259
				c3.226-3.217,7.509-4.992,12.066-4.992c4.565,0,8.849,1.775,12.075,4.992l3.354,3.354l63.019,63.027
				c3.226,3.226,5,7.509,5,12.066c0,4.557-1.775,8.841-5,12.066c-6.451,6.443-17.69,6.443-24.132,0l-66.381-66.372
				C139.149,90.743,139.149,79.915,145.796,73.259z M121.655,121.54c3.226-3.226,7.518-5.001,12.075-5.001s8.841,1.775,12.066,5.001
				l96.546,96.538c3.226,3.226,5,7.509,5,12.066c0,4.565-1.775,8.849-5,12.075c-6.443,6.443-17.69,6.443-24.132,0l-37.547-37.547
				l-46.933-46.933c-0.009-0.009-0.009-0.009-0.017-0.017l-12.058-12.049C115.008,139.017,115.008,128.188,121.655,121.54z
				 M97.523,169.805c3.226-3.217,7.509-4.992,12.075-4.992c4.548,0,8.832,1.766,12.049,4.975l46.95,46.95l73.745,73.754
				c3.226,3.217,5,7.501,5,12.066c0,4.557-1.775,8.841-5,12.066c-6.443,6.443-17.69,6.443-24.132,0l-38.69-38.682
				c0-0.009-0.009-0.017-0.017-0.026l-34.953-34.953l-47.019-47.019C90.876,187.29,90.876,176.461,97.523,169.805z M68.39,230.144
				c0-4.557,1.775-8.841,5.001-12.066c3.226-3.217,7.509-4.992,12.066-4.992c4.565,0,8.849,1.775,12.066,4.992l4.924,4.924
				l65.016,65.016c6.622,6.656,6.622,17.459-0.026,24.107c-6.443,6.443-17.69,6.451-24.141,0l-69.905-69.905
				C70.165,238.993,68.39,234.709,68.39,230.144z"/>
			<path d="M426.543,213.333c0,4.71,3.814,8.533,8.533,8.533c4.71,0,8.533-3.823,8.533-8.533c0-61.679-25.745-98.031-41.131-119.748
				C397.99,87.245,392.41,79.36,392.41,76.8V8.533c0-4.71-3.823-8.533-8.533-8.533c-4.719,0-8.533,3.823-8.533,8.533V76.8
				c0,7.987,5.538,15.821,13.218,26.65C403.682,124.809,426.543,157.082,426.543,213.333z"/>
			<path d="M179.324,477.867c-4.71,0-8.533,3.823-8.533,8.533v17.067c0,4.71,3.823,8.533,8.533,8.533
				c4.71,0,8.533-3.823,8.533-8.533V486.4C187.857,481.69,184.034,477.867,179.324,477.867z"/>
			<path d="M405.67,223.3c-20.07-13.38-83.106-49.937-86.246-51.738c-5.7-2.842-12.032-2.449-17.818,1.135
				c-12.476,7.706-20.13,28.86-20.13,40.636c0,16.393,11.503,26.359,23.689,36.907c4.224,3.652,8.585,7.441,12.945,11.793
				l42.667,42.667c2.825,2.833,5.495,5.504,5.862,6.306c0.154,0.478,0.171,2.295,0.171,4.079c-2.014,5.393-17.775,23.415-31.343,37
				l-94.131,85.589c-2.483,2.441-7.723,6.059-11.059,6.059h-76.8c-9.412,0-17.067-7.654-17.067-17.067s7.654-17.067,17.067-17.067
				h59.733c11.725,0,21.965-9.907,23.1-11.034l59.733-59.733c3.328-3.336,3.328-8.73,0-12.066c-3.337-3.337-8.738-3.337-12.066,0
				l-59.708,59.708c-2.483,2.441-7.723,6.059-11.059,6.059h-59.733h-25.6c-9.412,0-17.067-7.654-17.067-17.067
				c0-9.412,7.654-17.067,17.067-17.067h68.267c4.71,0,8.533-3.823,8.533-8.533s-3.823-8.533-8.533-8.533h-68.267h-25.6
				c-9.412,0-17.067-7.654-17.067-17.067c0-4.215,1.544-8.252,4.343-11.375c3.149-3.516,2.85-8.909-0.657-12.058
				c-3.516-3.149-8.909-2.842-12.049,0.666c-5.615,6.263-8.704,14.345-8.704,22.767c0,17.596,13.423,31.949,30.541,33.775
				c-3.072,5.12-4.941,11.034-4.941,17.425c0,17.596,13.423,31.949,30.541,33.775c-3.072,5.12-4.941,11.034-4.941,17.425
				c0,18.825,15.309,34.133,34.133,34.133h76.8c11.725,0,21.965-9.907,22.81-10.752l94.157-85.615
				c36.634-36.634,36.634-45.713,36.634-48.7c0-11.324-1.391-13.457-11.034-23.1l-42.667-42.667
				c-4.787-4.796-9.6-8.951-13.841-12.629c-11.691-10.129-17.792-15.795-17.792-24.004c0-10.769,9.182-26.513,12.783-26.752
				c0.648,0.375,65.246,37.828,84.881,50.918c22.067,14.711,47.403,37.871,47.403,86.767c0,36.625-28.8,86.281-47.855,119.134
				c-13.619,23.475-20.164,35.106-20.164,42.999v17.067c0,4.71,3.823,8.533,8.533,8.533s8.533-3.823,8.533-8.533v-16.973
				c0.35-4.335,9.651-20.378,17.86-34.526c21.163-36.497,50.159-86.477,50.159-127.701
				C460.676,266.633,429.282,239.044,405.67,223.3z"/>
		</g>
	</g>
</g>
<g>
</g>
<g>
</g>
<g>
</g>
<g>
</g>
<g>
</g>
<g>
</g>
<g>
</g>
<g>
</g>
<g>
</g>
<g>
</g>
<g>
</g>
<g>
</g>
<g>
</g>
<g>
</g>
<g>
</g>
</svg>
