<?xml version="1.0" encoding="iso-8859-1"?>
<!-- Generator: Adobe Illustrator 18.0.0, SVG Export Plug-In . SVG Version: 6.00 Build 0)  -->
<!DOCTYPE svg PUBLIC "-//W3C//DTD SVG 1.1//EN" "http://www.w3.org/Graphics/SVG/1.1/DTD/svg11.dtd">
<svg version="1.1" id="Capa_1" xmlns="http://www.w3.org/2000/svg" xmlns:xlink="http://www.w3.org/1999/xlink" x="0px" y="0px"
	 viewBox="0 0 419.061 419.061" style="enable-background:new 0 0 419.061 419.061;" xml:space="preserve">
<g>
	<path d="M415.387,10.05c-4.121-4.153-10.265-4.93-15.29-1.932l-69.708,41.6c-1.581,0.943-2.76,2.435-3.312,4.191l-2.56,8.144
		c-0.478,1.52-1.335,2.91-2.479,4.019l-145.351,140.8c-3.041,0.038-5.396-0.729-6.989-2.321c-4.061-4.061-3.16-7.35-2.689-8.422
		c0.197-0.313,9.28-15.271,9.494-15.641c9.15-15.846,13.173-33.716,11.64-51.775c-2.429-28.55-10.844-66.325-37.139-84.153
		c-13.897-9.423-31.005-12.108-50.942-8.071c-11.178-1.625-23.652-0.375-37.341,3.773C42.051,46.527,26.216,59.743,15.66,79.545
		c-32.532,61.026-5.304,166.922,1.091,189.51c-9.698,11.209-15.006,25.357-15.007,40.327c-0.001,16.497,6.424,32.007,18.09,43.674
		l41.638,41.638c12.04,12.04,27.855,18.06,43.671,18.06s31.631-6.02,43.671-18.06c3.624-3.624,6.78-7.678,9.386-12.057
		c7.8-10.346,13.867-24.797,18.033-42.958c2.447-10.638,10.016-19.421,20.245-23.494c11.774-4.687,28.092-12.728,35.332-19.968
		c6.63-6.63,9.542-13.402,9.165-21.312c-0.334-6.983-3.654-12.995-8.881-16.081c-4.465-2.638-9.846-2.765-14.816-0.325
		c-0.797,0.398-1.466,0.72-2.014,0.963c-10.775,4.909-18.077,5.562-21.702,1.936c-4.817-4.817,1.375-13.396,2.373-14.71
		L348.66,90.236l5.615-5.615c4.429-4.428,11.634-4.427,16.062,0c1.627,1.628,3.912,2.417,6.199,2.143
		c2.286-0.275,4.319-1.584,5.514-3.552l35.147-57.859C420.236,20.354,419.508,14.204,415.387,10.05z M330.278,78.975l4.258,4.258
		L170.648,251.117l-8.895-8.895L330.278,78.975z M173.197,129.983c0.771,9.081-0.168,18.108-2.711,26.747
		c-2.459-1.983-5.329-3.335-8.387-3.95c0.229-20.636-2.108-74.082-30.563-101.043c3.976,1.212,7.67,2.945,11.051,5.238
		C154.4,64.984,169.299,84.152,173.197,129.983z M53.995,247.766c-5.781-24.277-13.33-64.224-11.82-102.515
		c2.015-51.091,19.453-81.972,51.831-91.784c2.109-0.639,4.17-1.18,6.198-1.657c6.771,1.337,12.807,4.066,18.048,8.229
		c28.394,22.548,29.15,79.621,28.767,95.745c-16.429,8.723-28.89,25.556-37.992,51.288c-5.581,15.767-17.949,27.961-33.927,33.454
		L53.995,247.766z M28.897,86.602c6.918-12.978,16.202-22.226,28.185-28.07c-6.085,6.145-11.291,13.447-15.557,21.922
		c-8.5,16.887-13.324,38.489-14.338,64.205c-1.603,40.644,6.484,82.757,12.497,107.756c-0.953,0.397-7.273,3.499-10.361,5.535
		C21.338,226.994,1.86,137.318,28.897,86.602z M182.954,272.004c8.506,8.507,21.469,8.879,38.457,1.14
		c0.632-0.28,1.521-0.702,2.525-1.205c0.329-0.161,0.529-0.197,0.505-0.212c0.41,0.174,1.437,1.542,1.55,3.894
		c0.123,2.578-0.372,5.573-4.788,9.989c-4.417,4.417-17.148,11.414-30.273,16.639c-14.806,5.896-25.765,18.631-29.316,34.072
		c-3.656,15.939-9.006,28.865-15.476,37.398c-0.236,0.292-0.449,0.602-0.639,0.926c-2.005,3.433-4.458,6.61-7.291,9.442
		c-18.231,18.231-47.897,18.231-66.129,0l-41.06-41.06c-8.917-8.917-14.251-20.941-14.275-33.552
		c-0.023-12.524,4.843-24.302,13.697-33.155c3.678-3.679,7.927-6.706,12.629-8.998c0.029-0.014,0.058-0.028,0.086-0.043
		c3.365-1.615,14.496-4.911,14.496-4.911l22.32-7.657c20.335-6.99,36.079-22.53,43.197-42.637
		c8.01-22.645,18.503-36.95,32.011-43.628c0.188-0.093,0.376-0.184,0.565-0.274c1.125-0.535,2.383-0.738,3.617-0.567
		c0.305,0.042,0.43,0.079,0.773,0.191c1.163,0.381,1.789,1.417,2.107,1.932c0.063,0.101,0.142,0.238,0.226,0.406
		c0.81,1.613,0.66,3.549-0.294,5.08c-0.145,0.233-0.291,0.464-0.439,0.695c-4.992,6.509-7.49,11.977-8.132,13.487
		c-0.611,1.245-1.854,4.249-1.981,8.275c-0.14,4.429,1.043,11.057,7.472,17.486c1.53,1.529,3.243,2.794,5.11,3.808l-18.236,17.665
		c-0.759,0.735-1.408,1.593-1.813,2.569c-1.218,2.931-0.494,6.143,1.605,8.241l19.651,19.65c1.407,1.407,3.314,2.197,5.303,2.197
		h0.045c1.991,0,3.898-0.803,5.289-2.228l2.126-2.178C179.164,267.351,180.707,269.757,182.954,272.004z M373.314,68.702
		c-9.148-4.192-20.216-2.877-28.157,3.938l-6.27-6.27l1.646-5.235l58.637-34.993L373.314,68.702z"/>
	<path d="M85.132,303.857c-2.929-2.929-7.678-2.929-10.606,0c-2.929,2.929-2.929,7.678,0,10.606l23.861,23.861
		c1.464,1.464,3.384,2.197,5.303,2.197s3.839-0.732,5.303-2.197c2.929-2.929,2.929-7.678,0-10.606L85.132,303.857z"/>
	<path d="M111.449,283.154c-2.929-2.929-7.678-2.929-10.606,0c-2.929,2.929-2.929,7.678,0,10.606l18.247,18.247
		c1.464,1.464,3.384,2.197,5.303,2.197s3.839-0.732,5.303-2.197c2.929-2.929,2.929-7.678,0-10.606L111.449,283.154z"/>
	<path d="M139.868,254.735c-2.929-2.929-7.678-2.929-10.606,0c-2.929,2.929-2.929,7.678,0,10.606l18.247,18.247
		c1.464,1.464,3.384,2.197,5.303,2.197s3.839-0.732,5.303-2.197c2.929-2.929,2.929-7.678,0-10.606L139.868,254.735z"/>
</g>
<g>
</g>
<g>
</g>
<g>
</g>
<g>
</g>
<g>
</g>
<g>
</g>
<g>
</g>
<g>
</g>
<g>
</g>
<g>
</g>
<g>
</g>
<g>
</g>
<g>
</g>
<g>
</g>
<g>
</g>
</svg>
