<?xml version="1.0" encoding="utf-8"?>
<!-- Generator: Adobe Illustrator 21.0.0, SVG Export Plug-In . SVG Version: 6.00 Build 0)  -->
<svg version="1.1" id="Layer_1" xmlns="http://www.w3.org/2000/svg" xmlns:xlink="http://www.w3.org/1999/xlink" x="0px" y="0px"
	 viewBox="0 0 185 208.4" style="enable-background:new 0 0 185 208.4;" xml:space="preserve">
<style type="text/css">
	.st0{fill:#FFFFFF;}
</style>
<g>
	<path class="st0" d="M176.6,46L100.9,2.2c-5.2-3-11.6-3-16.7,0L8.4,46C3.2,49,0,54.5,0,60.5V148c0,6,3.2,11.5,8.4,14.5l75.8,43.7
		c5.2,3,11.6,3,16.7,0l75.8-43.7c5.2-3,8.4-8.5,8.4-14.5V60.5C185,54.5,181.8,49,176.6,46z M125.4,65.1c-0.3,0.9-0.6,1.7-1.1,2.4
		l-46.4,65.3h41.3c3.1,0,5.7,2.5,5.7,5.7s-2.5,5.7-5.7,5.7H65c-3,0-5.5-2.5-5.5-5.5c0-0.8,0.1-1.5,0.4-2.1c0.2-0.7,0.6-1.3,1-1.9
		l46.6-65.5H67.7c-3.1,0-5.7-2.5-5.7-5.7s2.5-5.7,5.7-5.7h52.7c2.9,0,5.2,2.3,5.2,5.2C125.7,63.7,125.6,64.4,125.4,65.1z"/>
</g>
</svg>
